<svg width="1000" height="1000" viewBox="0 0 1000 1000" fill="none" xmlns="http://www.w3.org/2000/svg">
<rect width="1000" height="1000" fill="white"/>
<path d="M597.455 482.243L585.171 473.619L760.276 225.077H575.763L423.918 450.62L411.635 442.257L565.57 213.316L571.842 210.18H774.65L780.922 221.94L597.455 482.243Z" fill="#111111"/>
<path d="M790.616 794.283H578.139L571.605 790.624L412.182 524.833L424.988 516.993L582.32 779.125H777.026L497.382 342.674L424.988 450.349L412.443 441.986L566.378 213.045L578.923 221.408L506.529 329.083L797.15 782.784L790.616 794.283Z" fill="#111111"/>
<path d="M243.997 219.591L231.006 227.402L387.497 487.662L400.487 479.851L243.997 219.591Z" fill="#111111"/>
<path d="M418.695 794.806H237.579L230 787.227V213.829L237.579 206.25H418.695L426.274 213.829V787.227L418.695 794.806ZM244.897 779.648H411.116V221.408H244.897V779.648Z" fill="#111111"/>
<path d="M411.644 441.608L231.184 709.84L243.76 718.301L424.221 450.069L411.644 441.608Z" fill="#111111"/>
</svg>
