<svg width="18" height="25" viewBox="0 0 18 25" fill="none" xmlns="http://www.w3.org/2000/svg">
<path d="M2.60342 22.9206L3.84149 24.8459H2.51616L1.52352 23.1933V24.8459H0.394531V21.2734H1.52352V22.7297L2.48343 21.3062H3.74877L2.60342 22.9206Z" fill="#111111"/>
<path d="M5.84911 21.2109C6.989 21.2109 7.7962 21.9963 7.7962 23.0708C7.7962 24.1398 6.97264 24.9362 5.84911 24.9362C4.72012 24.9362 3.92383 24.1508 3.92383 23.0872C3.92383 22.0073 4.75284 21.2109 5.84911 21.2109ZM5.84911 23.938C6.3127 23.938 6.66721 23.5726 6.66721 23.0654C6.66721 22.5472 6.30725 22.1981 5.84911 22.1981C5.38551 22.1981 5.05282 22.5581 5.05282 23.0763C5.04736 23.5944 5.38551 23.938 5.84911 23.938Z" fill="#111111"/>
<path d="M9.99754 21.2109C11.1374 21.2109 11.9446 21.9963 11.9446 23.0708C11.9446 24.1398 11.1211 24.9362 9.99754 24.9362C8.86856 24.9362 8.07227 24.1508 8.07227 23.0872C8.07227 22.0073 8.90674 21.2109 9.99754 21.2109ZM9.99754 23.938C10.4611 23.938 10.8157 23.5726 10.8157 23.0654C10.8157 22.5472 10.4557 22.1981 9.99754 22.1981C9.53395 22.1981 9.20125 22.5581 9.20125 23.0763C9.20125 23.5944 9.5394 23.938 9.99754 23.938Z" fill="#111111"/>
<path d="M14.4558 22.3563C14.4067 22.3509 14.3522 22.3454 14.2758 22.3454C13.7304 22.3454 13.545 22.7436 13.545 23.2781V24.8434H12.416V21.2982H13.5177V21.7727C13.6868 21.4291 14.0195 21.2109 14.4558 21.2109V22.3563Z" fill="#111111"/>
<path d="M14.6719 24.3268L15.3045 23.7105C15.4954 23.8796 15.73 24.0214 16.0899 24.0214C16.3081 24.0214 16.4063 23.9559 16.4063 23.825C16.4063 23.4214 14.7864 23.596 14.7864 22.3033C14.7864 21.6216 15.3809 21.207 16.1499 21.207C16.8262 21.207 17.208 21.5288 17.4207 21.8124L16.6899 22.3851C16.5808 22.2761 16.379 22.107 16.1008 22.107C15.9372 22.107 15.8445 22.1724 15.8445 22.2815C15.8445 22.7288 17.4807 22.4724 17.4807 23.7541C17.4807 24.4796 16.848 24.9213 16.0354 24.9213C15.3645 24.9323 14.8846 24.6105 14.6719 24.3268Z" fill="#111111"/>
<path d="M11.3193 9.25597L10.9492 8.99611L16.225 1.50744H10.6658L6.0908 8.30316L5.7207 8.05117L10.3587 1.15309L10.5476 1.05859H16.6581L16.8471 1.41295L11.3193 9.25597Z" fill="#111111"/>
<path d="M17.1364 18.6575H10.7346L10.5377 18.5472L5.73438 10.5388L6.12022 10.3026L10.8605 18.2007H16.7269L8.3014 5.05029L6.12022 8.2946L5.74225 8.04261L10.3802 1.14453L10.7582 1.39652L8.577 4.64082L17.3332 18.311L17.1364 18.6575Z" fill="#111111"/>
<path d="M0.670697 1.33887L0.279297 1.57422L4.99426 9.41594L5.38566 9.18059L0.670697 1.33887Z" fill="#111111"/>
<path d="M5.93329 18.6709H0.476402L0.248047 18.4426V1.16586L0.476402 0.9375H5.93329L6.16165 1.16586V18.4426L5.93329 18.6709ZM0.696882 18.2142H5.70494V1.39422H0.696882V18.2142Z" fill="#111111"/>
<path d="M5.72231 8.03135L0.285156 16.1133L0.664087 16.3682L6.10124 8.28629L5.72231 8.03135Z" fill="#111111"/>
</svg>
