<svg width="195" height="271" viewBox="0 0 195 271" fill="none" xmlns="http://www.w3.org/2000/svg">
<path d="M27.2932 248.238L41.2214 269.898H26.3115L15.1444 251.306V269.898H2.44336V229.707H15.1444V246.09L25.9433 230.075H40.1783L27.2932 248.238Z" fill="white"/>
<path d="M63.8077 229.031C76.6314 229.031 85.7124 237.867 85.7124 249.955C85.7124 261.982 76.4474 270.94 63.8077 270.94C51.1067 270.94 42.1484 262.105 42.1484 250.139C42.1484 237.99 51.4748 229.031 63.8077 229.031ZM63.8077 259.711C69.0231 259.711 73.0113 255.6 73.0113 249.894C73.0113 244.065 68.9617 240.137 63.8077 240.137C58.5923 240.137 54.8495 244.187 54.8495 250.017C54.7881 255.846 58.5923 259.711 63.8077 259.711Z" fill="white"/>
<path d="M110.487 229.031C123.311 229.031 132.392 237.867 132.392 249.955C132.392 261.982 123.127 270.94 110.487 270.94C97.7863 270.94 88.8281 262.105 88.8281 250.139C88.8281 237.99 98.2158 229.031 110.487 229.031ZM110.487 259.711C115.703 259.711 119.691 255.6 119.691 249.894C119.691 244.065 115.641 240.137 110.487 240.137C105.272 240.137 101.529 244.187 101.529 250.017C101.529 255.846 105.333 259.711 110.487 259.711Z" fill="white"/>
<path d="M160.631 241.917C160.079 241.856 159.466 241.794 158.607 241.794C152.471 241.794 150.385 246.274 150.385 252.287V269.897H137.684V230.013H150.078V235.351C151.98 231.486 155.723 229.031 160.631 229.031V241.917Z" fill="white"/>
<path d="M163.072 264.067L170.19 257.133C172.337 259.035 174.976 260.631 179.025 260.631C181.48 260.631 182.584 259.894 182.584 258.422C182.584 253.881 164.361 255.845 164.361 241.302C164.361 233.632 171.049 228.969 179.7 228.969C187.309 228.969 191.604 232.589 193.997 235.78L185.775 242.223C184.547 240.995 182.277 239.093 179.148 239.093C177.307 239.093 176.264 239.83 176.264 241.057C176.264 246.088 194.671 243.204 194.671 257.624C194.671 265.785 187.554 270.755 178.412 270.755C170.865 270.878 165.465 267.258 163.072 264.067Z" fill="white"/>
<path d="M125.342 94.4871L121.178 91.5637L180.53 7.31522H117.989L66.5209 83.7678L62.3574 80.933L114.534 3.3287L116.66 2.26562H185.402L187.528 6.25215L125.342 94.4871Z" fill="white"/>
<path d="M190.772 200.261H118.752L116.537 199.021L62.5 108.925L66.8407 106.268L120.169 195.123H186.165L91.3788 47.1786L66.8407 83.6774L62.5886 80.8425L114.765 3.23828L119.017 6.07314L94.4793 42.5719L192.986 196.363L190.772 200.261Z" fill="white"/>
<path d="M5.5165 5.46167L1.11328 8.10938L54.1562 96.3296L58.5595 93.6819L5.5165 5.46167Z" fill="white"/>
<path d="M64.7398 200.441H3.35022L0.78125 197.872V3.50659L3.35022 0.9375H64.7398L67.3088 3.50659V197.872L64.7398 200.441ZM5.83061 195.303H62.1709V6.07568H5.83061V195.303Z" fill="white"/>
<path d="M62.3512 80.7179L1.18359 171.641L5.44654 174.509L66.6141 83.5861L62.3512 80.7179Z" fill="white"/>
</svg>
