<svg width="386" height="400" viewBox="0 0 386 400" fill="none" xmlns="http://www.w3.org/2000/svg">
<path d="M250.092 188.035L241.765 182.188L360.469 13.6928H235.386L132.45 166.596L124.123 160.927L228.477 5.71987L232.729 3.59375H370.214L374.466 11.5667L250.092 188.035Z" fill="white"/>
<path d="M380.952 399.58H236.912L232.483 397.1L124.408 216.911L133.09 211.596L239.747 389.304H371.739L182.166 93.4187L133.09 166.416L124.585 160.746L228.939 5.53906L237.443 11.2087L188.367 84.2055L385.381 391.784L380.952 399.58Z" fill="white"/>
<path d="M10.4393 9.9898L1.63281 15.2852L107.719 191.724L116.526 186.428L10.4393 9.9898Z" fill="white"/>
<path d="M128.886 399.94H6.10671L0.96875 394.801V6.07563L6.10671 0.9375H128.886L134.024 6.07563V394.801L128.886 399.94ZM11.0675 389.663H123.748V11.2138H11.0675V389.663Z" fill="white"/>
<path d="M124.109 160.496L1.77344 342.34L10.2994 348.076L132.635 166.233L124.109 160.496Z" fill="white"/>
</svg>
