<svg width="388" height="541" viewBox="0 0 388 541" fill="none" xmlns="http://www.w3.org/2000/svg">
<path d="M53.0631 495.53L80.9196 538.85H51.0997L28.7654 501.666V538.85H3.36328V458.469H28.7654V491.235L50.3634 459.205H78.8334L53.0631 495.53Z" fill="white"/>
<path d="M126.092 457.117C151.74 457.117 169.902 474.789 169.902 498.965C169.902 523.018 151.371 540.935 126.092 540.935C100.69 540.935 82.7734 523.263 82.7734 499.333C82.7734 475.034 101.426 457.117 126.092 457.117ZM126.092 518.477C136.523 518.477 144.499 510.255 144.499 498.842C144.499 487.183 136.4 479.329 126.092 479.329C115.661 479.329 108.176 487.429 108.176 499.087C108.053 510.746 115.661 518.477 126.092 518.477Z" fill="white"/>
<path d="M219.451 457.117C245.099 457.117 263.261 474.789 263.261 498.965C263.261 523.018 244.731 540.935 219.451 540.935C194.049 540.935 176.133 523.263 176.133 499.333C176.133 475.034 194.908 457.117 219.451 457.117ZM219.451 518.477C229.882 518.477 237.859 510.255 237.859 498.842C237.859 487.183 229.76 479.329 219.451 479.329C209.021 479.329 201.535 487.429 201.535 499.087C201.535 510.746 209.143 518.477 219.451 518.477Z" fill="white"/>
<path d="M319.739 482.888C318.635 482.766 317.408 482.643 315.69 482.643C303.418 482.643 299.246 491.601 299.246 503.628V538.848H273.844V459.081H298.632V469.757C302.437 462.026 309.922 457.117 319.739 457.117V482.888Z" fill="white"/>
<path d="M324.621 527.188L338.856 513.32C343.151 517.125 348.428 520.315 356.527 520.315C361.436 520.315 363.645 518.843 363.645 515.898C363.645 506.816 327.198 510.743 327.198 481.659C327.198 466.319 340.574 456.992 357.877 456.992C373.094 456.992 381.684 464.233 386.47 470.614L370.026 483.5C367.572 481.045 363.031 477.241 356.773 477.241C353.091 477.241 351.005 478.714 351.005 481.168C351.005 491.231 387.82 485.463 387.82 514.302C387.82 530.624 373.585 540.564 355.3 540.564C340.206 540.81 329.407 533.569 324.621 527.188Z" fill="white"/>
<path d="M249.16 188.035L240.833 182.188L359.538 13.6928H234.455L131.518 166.596L123.191 160.927L227.545 5.71987L231.797 3.59375H369.282L373.534 11.5667L249.16 188.035Z" fill="white"/>
<path d="M380.02 399.58H235.98L231.551 397.1L123.477 216.911L132.158 211.596L238.815 389.304H370.807L181.234 93.4187L132.158 166.416L123.654 160.746L228.008 5.53906L236.512 11.2087L187.435 84.2055L384.45 391.784L380.02 399.58Z" fill="white"/>
<path d="M9.50764 9.9898L0.701172 15.2852L106.787 191.724L115.594 186.428L9.50764 9.9898Z" fill="white"/>
<path d="M127.955 399.94H5.17507L0.0371094 394.801V6.07563L5.17507 0.9375H127.955L133.093 6.07563V394.801L127.955 399.94ZM10.1359 389.663H122.817V11.2138H10.1359V389.663Z" fill="white"/>
<path d="M123.177 160.496L0.841797 342.34L9.36771 348.076L131.703 166.233L123.177 160.496Z" fill="white"/>
</svg>
