<svg width="195" height="271" viewBox="0 0 195 271" fill="none" xmlns="http://www.w3.org/2000/svg">
<path d="M26.8948 248.238L40.8229 269.898H25.913L14.746 251.306V269.898H2.04492V229.707H14.746V246.09L25.5449 230.075H39.7799L26.8948 248.238Z" fill="#111111"/>
<path d="M63.4092 229.031C76.233 229.031 85.3139 237.867 85.3139 249.955C85.3139 261.982 76.0489 270.94 63.4092 270.94C50.7082 270.94 41.75 262.105 41.75 250.139C41.75 237.99 51.0764 229.031 63.4092 229.031ZM63.4092 259.711C68.6246 259.711 72.6129 255.6 72.6129 249.894C72.6129 244.065 68.5633 240.137 63.4092 240.137C58.1938 240.137 54.451 244.187 54.451 250.017C54.3897 255.846 58.1938 259.711 63.4092 259.711Z" fill="#111111"/>
<path d="M110.089 229.031C122.913 229.031 131.994 237.867 131.994 249.955C131.994 261.982 122.729 270.94 110.089 270.94C97.3879 270.94 88.4297 262.105 88.4297 250.139C88.4297 237.99 97.8174 229.031 110.089 229.031ZM110.089 259.711C115.304 259.711 119.293 255.6 119.293 249.894C119.293 244.065 115.243 240.137 110.089 240.137C104.874 240.137 101.131 244.187 101.131 250.017C101.131 255.846 104.935 259.711 110.089 259.711Z" fill="#111111"/>
<path d="M160.233 241.917C159.681 241.856 159.067 241.794 158.208 241.794C152.072 241.794 149.986 246.274 149.986 252.287V269.897H137.285V230.013H149.679V235.351C151.581 231.486 155.324 229.031 160.233 229.031V241.917Z" fill="#111111"/>
<path d="M162.674 264.067L169.791 257.133C171.939 259.035 174.577 260.631 178.627 260.631C181.081 260.631 182.186 259.894 182.186 258.422C182.186 253.881 163.962 255.845 163.962 241.302C163.962 233.632 170.65 228.969 179.302 228.969C186.91 228.969 191.205 232.589 193.598 235.78L185.376 242.223C184.149 240.995 181.879 239.093 178.75 239.093C176.909 239.093 175.866 239.83 175.866 241.057C175.866 246.088 194.273 243.204 194.273 257.624C194.273 265.785 187.156 270.755 178.013 270.755C170.466 270.878 165.067 267.258 162.674 264.067Z" fill="#111111"/>
<path d="M124.943 94.4871L120.78 91.5637L180.132 7.31522H117.591L66.1225 83.7678L61.959 80.933L114.136 3.3287L116.262 2.26562H185.004L187.13 6.25215L124.943 94.4871Z" fill="#111111"/>
<path d="M190.373 200.261H118.353L116.139 199.021L62.1016 108.925L66.4422 106.268L119.771 195.123H185.767L90.9804 47.1786L66.4422 83.6774L62.1901 80.8425L114.367 3.23828L118.619 6.07314L94.0808 42.5719L192.588 196.363L190.373 200.261Z" fill="#111111"/>
<path d="M5.11807 5.46167L0.714844 8.10938L53.7578 96.3296L58.161 93.6819L5.11807 5.46167Z" fill="#111111"/>
<path d="M64.3414 200.441H2.95179L0.382812 197.872V3.50659L2.95179 0.9375H64.3414L66.9104 3.50659V197.872L64.3414 200.441ZM5.43217 195.303H61.7724V6.07568H5.43217V195.303Z" fill="#111111"/>
<path d="M61.9527 80.7179L0.785156 171.641L5.0481 174.509L66.2157 83.5861L61.9527 80.7179Z" fill="#111111"/>
</svg>
