<svg width="389" height="541" viewBox="0 0 389 541" fill="none" xmlns="http://www.w3.org/2000/svg">
<path d="M53.2623 495.53L81.1188 538.85H51.2989L28.9646 501.666V538.85H3.5625V458.469H28.9646V491.235L50.5626 459.205H79.0326L53.2623 495.53Z" fill="#111111"/>
<path d="M126.291 457.117C151.939 457.117 170.101 474.789 170.101 498.965C170.101 523.018 151.571 540.935 126.291 540.935C100.889 540.935 82.9727 523.263 82.9727 499.333C82.9727 475.034 101.625 457.117 126.291 457.117ZM126.291 518.477C136.722 518.477 144.699 510.255 144.699 498.842C144.699 487.183 136.599 479.329 126.291 479.329C115.86 479.329 108.375 487.429 108.375 499.087C108.252 510.746 115.86 518.477 126.291 518.477Z" fill="#111111"/>
<path d="M219.651 457.117C245.298 457.117 263.46 474.789 263.46 498.965C263.46 523.018 244.93 540.935 219.651 540.935C194.249 540.935 176.332 523.263 176.332 499.333C176.332 475.034 195.108 457.117 219.651 457.117ZM219.651 518.477C230.081 518.477 238.058 510.255 238.058 498.842C238.058 487.183 229.959 479.329 219.651 479.329C209.22 479.329 201.734 487.429 201.734 499.087C201.734 510.746 209.343 518.477 219.651 518.477Z" fill="#111111"/>
<path d="M319.939 482.888C318.834 482.766 317.607 482.643 315.889 482.643C303.617 482.643 299.445 491.601 299.445 503.628V538.848H274.043V459.081H298.832V469.757C302.636 462.026 310.121 457.117 319.939 457.117V482.888Z" fill="#111111"/>
<path d="M324.82 527.188L339.055 513.32C343.35 517.125 348.627 520.315 356.726 520.315C361.635 520.315 363.844 518.843 363.844 515.898C363.844 506.816 327.397 510.743 327.397 481.659C327.397 466.319 340.773 456.992 358.076 456.992C373.293 456.992 381.883 464.233 386.669 470.614L370.225 483.5C367.771 481.045 363.23 477.241 356.972 477.241C353.29 477.241 351.204 478.714 351.204 481.168C351.204 491.231 388.019 485.463 388.019 514.302C388.019 530.624 373.784 540.564 355.499 540.564C340.405 540.81 329.606 533.569 324.82 527.188Z" fill="#111111"/>
<path d="M249.361 188.035L241.034 182.188L359.739 13.6928H234.656L131.72 166.596L123.393 160.927L227.746 5.71987L231.998 3.59375H369.483L373.735 11.5667L249.361 188.035Z" fill="#111111"/>
<path d="M380.222 399.58H236.181L231.752 397.1L123.678 216.911L132.359 211.596L239.016 389.304H371.009L181.436 93.4187L132.359 166.416L123.855 160.746L228.209 5.53906L236.713 11.2087L187.636 84.2055L384.651 391.784L380.222 399.58Z" fill="#111111"/>
<path d="M9.70881 9.9898L0.902344 15.2852L106.989 191.724L115.795 186.428L9.70881 9.9898Z" fill="#111111"/>
<path d="M128.156 399.94H5.37625L0.238281 394.801V6.07563L5.37625 0.9375H128.156L133.294 6.07563V394.801L128.156 399.94ZM10.337 389.663H123.018V11.2138H10.337V389.663Z" fill="#111111"/>
<path d="M123.378 160.496L1.04297 342.34L9.56888 348.076L131.904 166.233L123.378 160.496Z" fill="#111111"/>
</svg>
