<svg width="385" height="400" viewBox="0 0 385 400" fill="none" xmlns="http://www.w3.org/2000/svg">
<path d="M249.293 188.035L240.966 182.188L359.67 13.6928H234.588L131.651 166.596L123.324 160.927L227.678 5.71987L231.93 3.59375H369.415L373.667 11.5667L249.293 188.035Z" fill="#111111"/>
<path d="M380.153 399.58H236.113L231.684 397.1L123.609 216.911L132.291 211.596L238.948 389.304H370.94L181.367 93.4187L132.291 166.416L123.787 160.746L228.14 5.53906L236.645 11.2087L187.568 84.2055L384.582 391.784L380.153 399.58Z" fill="#111111"/>
<path d="M9.64046 9.9898L0.833984 15.2852L106.92 191.724L115.727 186.428L9.64046 9.9898Z" fill="#111111"/>
<path d="M128.087 399.94H5.30789L0.169922 394.801V6.07563L5.30789 0.9375H128.087L133.225 6.07563V394.801L128.087 399.94ZM10.2687 389.663H122.949V11.2138H10.2687V389.663Z" fill="#111111"/>
<path d="M123.31 160.496L0.974609 342.34L9.50052 348.076L131.836 166.233L123.31 160.496Z" fill="#111111"/>
</svg>
